<svg width="256" height="256" viewBox="0 0 256 256" fill="none" xmlns="http://www.w3.org/2000/svg">
  <rect x="20" y="20" width="216" height="216" rx="64" fill="url(#bg)"/>
  <rect x="28" y="28" width="200" height="200" rx="56" stroke="rgba(255,255,255,0.18)" stroke-width="2"/>
  <path d="M76 146.5C76 116.953 99.953 93 129.5 93H169L182 80L197 95L184 108V147.5C184 170.42 165.42 189 142.5 189H103C88.0883 189 76 176.912 76 162V146.5Z" fill="url(#metal)"/>
  <path d="M102.5 110H143.5C156.479 110 167 120.521 167 133.5V149C167 161.979 156.479 172.5 143.5 172.5H113C107.201 172.5 102.5 167.799 102.5 162V110Z" fill="#06111E"/>
  <path d="M64 170L93 141" stroke="url(#accent)" stroke-width="14" stroke-linecap="round"/>
  <circle cx="114" cy="141" r="16" fill="url(#accent)"/>
  <path d="M111 75L118 64H141L148 75" stroke="#F7BF67" stroke-width="9" stroke-linecap="round"/>
  <defs>
    <linearGradient id="bg" x1="36" y1="28" x2="219" y2="224" gradientUnits="userSpaceOnUse">
      <stop stop-color="#0D1A31"/>
      <stop offset="0.52" stop-color="#0A1225"/>
      <stop offset="1" stop-color="#040814"/>
    </linearGradient>
    <linearGradient id="metal" x1="95" y1="88" x2="193" y2="189" gradientUnits="userSpaceOnUse">
      <stop stop-color="#E7EEF9"/>
      <stop offset="0.55" stop-color="#9FB7D6"/>
      <stop offset="1" stop-color="#6F89AB"/>
    </linearGradient>
    <linearGradient id="accent" x1="73" y1="176" x2="138" y2="112" gradientUnits="userSpaceOnUse">
      <stop stop-color="#F7BF67"/>
      <stop offset="1" stop-color="#91F2FF"/>
    </linearGradient>
  </defs>
</svg>
